<svg width="1441" height="791" viewBox="0 0 1441 791" fill="none" xmlns="http://www.w3.org/2000/svg">
<g clip-path="url(#clip0_8_43)">
<rect width="1440" height="791" transform="translate(0.939453)" fill="black"/>
<g opacity="0.8">
<g filter="url(#filter0_f_8_43)">
<ellipse cx="720.642" cy="-129.28" rx="128.518" ry="128.518" transform="rotate(-90 720.642 -129.28)" fill="#3EE1A6" fill-opacity="0.5"/>
</g>
<mask id="mask0_8_43" style="mask-type:alpha" maskUnits="userSpaceOnUse" x="200" y="-440" width="1042" height="622">
<rect x="200.606" y="-440" width="1041.16" height="621.439" fill="url(#paint0_radial_8_43)"/>
</mask>
<g mask="url(#mask0_8_43)">
<rect x="334.547" y="-1.30502" width="85.6784" height="85.6784" stroke="white" stroke-width="1.08454"/>
<rect x="420.225" y="-1.30502" width="85.6784" height="85.6784" stroke="white" stroke-width="1.08454"/>
<rect x="505.904" y="-1.30502" width="85.6784" height="85.6784" stroke="white" stroke-width="1.08454"/>
<rect x="591.582" y="-1.30502" width="85.6784" height="85.6784" stroke="white" stroke-width="1.08454"/>
<rect x="677.261" y="-1.30502" width="85.6784" height="85.6784" stroke="white" stroke-width="1.08454"/>
<rect x="762.939" y="-1.30502" width="85.6784" height="85.6784" stroke="white" stroke-width="1.08454"/>
<rect x="848.617" y="-1.30502" width="85.6784" height="85.6784" stroke="white" stroke-width="1.08454"/>
<rect x="934.296" y="-1.30502" width="85.6784" height="85.6784" stroke="white" stroke-width="1.08454"/>
<rect x="1019.97" y="-1.30502" width="85.6784" height="85.6784" stroke="white" stroke-width="1.08454"/>
<rect x="334.547" y="84.3734" width="85.6784" height="85.6784" stroke="white" stroke-width="1.08454"/>
<rect x="420.225" y="84.3734" width="85.6784" height="85.6784" stroke="white" stroke-width="1.08454"/>
<rect x="505.904" y="84.3734" width="85.6784" height="85.6784" stroke="white" stroke-width="1.08454"/>
<rect x="591.582" y="84.3734" width="85.6784" height="85.6784" stroke="white" stroke-width="1.08454"/>
<rect x="677.261" y="84.3734" width="85.6784" height="85.6784" stroke="white" stroke-width="1.08454"/>
<rect x="762.939" y="84.3734" width="85.6784" height="85.6784" stroke="white" stroke-width="1.08454"/>
<rect x="848.617" y="84.3734" width="85.6784" height="85.6784" stroke="white" stroke-width="1.08454"/>
<rect x="934.296" y="84.3734" width="85.6784" height="85.6784" stroke="white" stroke-width="1.08454"/>
<rect x="1019.97" y="84.3734" width="85.6784" height="85.6784" stroke="white" stroke-width="1.08454"/>
</g>
<g filter="url(#filter1_f_8_43)">
<ellipse cx="720.642" cy="692.159" rx="128.518" ry="128.518" transform="rotate(-90 720.642 692.159)" fill="#3EE1A6" fill-opacity="0.5"/>
</g>
<mask id="mask1_8_43" style="mask-type:alpha" maskUnits="userSpaceOnUse" x="200" y="381" width="1042" height="622">
<rect x="200.606" y="381.439" width="1041.16" height="621.439" fill="url(#paint1_radial_8_43)"/>
</mask>
<g mask="url(#mask1_8_43)">
<rect x="334.547" y="391.742" width="85.6784" height="85.6784" stroke="white" stroke-width="1.08454"/>
<rect x="420.225" y="391.742" width="85.6784" height="85.6784" stroke="white" stroke-width="1.08454"/>
<rect x="505.904" y="391.742" width="85.6784" height="85.6784" stroke="white" stroke-width="1.08454"/>
<rect x="591.582" y="391.742" width="85.6784" height="85.6784" stroke="white" stroke-width="1.08454"/>
<rect x="677.261" y="391.742" width="85.6784" height="85.6784" stroke="white" stroke-width="1.08454"/>
<rect x="762.939" y="391.742" width="85.6784" height="85.6784" stroke="white" stroke-width="1.08454"/>
<rect x="848.617" y="391.742" width="85.6784" height="85.6784" fill="white" fill-opacity="0.25" stroke="white" stroke-width="1.08454"/>
<rect x="934.296" y="391.742" width="85.6784" height="85.6784" stroke="white" stroke-width="1.08454"/>
<rect x="1019.97" y="391.742" width="85.6784" height="85.6784" stroke="white" stroke-width="1.08454"/>
<rect x="334.547" y="477.421" width="85.6784" height="85.6784" stroke="white" stroke-width="1.08454"/>
<rect x="420.225" y="477.421" width="85.6784" height="85.6784" stroke="white" stroke-width="1.08454"/>
<rect x="505.904" y="477.421" width="85.6784" height="85.6784" stroke="white" stroke-width="1.08454"/>
<rect x="591.582" y="477.421" width="85.6784" height="85.6784" stroke="white" stroke-width="1.08454"/>
<rect x="677.261" y="477.421" width="85.6784" height="85.6784" stroke="white" stroke-width="1.08454"/>
<rect x="762.939" y="477.421" width="85.6784" height="85.6784" stroke="white" stroke-width="1.08454"/>
<rect x="848.617" y="477.421" width="85.6784" height="85.6784" stroke="white" stroke-width="1.08454"/>
<rect x="934.296" y="477.421" width="85.6784" height="85.6784" stroke="white" stroke-width="1.08454"/>
<rect x="1019.97" y="477.421" width="85.6784" height="85.6784" stroke="white" stroke-width="1.08454"/>
<rect x="334.547" y="563.099" width="85.6784" height="85.6784" stroke="white" stroke-width="1.08454"/>
<rect x="420.225" y="563.099" width="85.6784" height="85.6784" stroke="white" stroke-width="1.08454"/>
<rect x="505.904" y="563.099" width="85.6784" height="85.6784" stroke="white" stroke-width="1.08454"/>
<rect x="591.582" y="563.099" width="85.6784" height="85.6784" stroke="white" stroke-width="1.08454"/>
<rect x="677.261" y="563.099" width="85.6784" height="85.6784" fill="white" fill-opacity="0.25" stroke="white" stroke-width="1.08454"/>
<rect x="762.939" y="563.099" width="85.6784" height="85.6784" stroke="white" stroke-width="1.08454"/>
<rect x="848.617" y="563.099" width="85.6784" height="85.6784" fill="white" fill-opacity="0.25" stroke="white" stroke-width="1.08454"/>
<rect x="934.296" y="563.099" width="85.6784" height="85.6784" stroke="white" stroke-width="1.08454"/>
<rect x="1019.97" y="563.099" width="85.6784" height="85.6784" stroke="white" stroke-width="1.08454"/>
<rect x="334.547" y="648.778" width="85.6784" height="85.6784" stroke="white" stroke-width="1.08454"/>
<rect x="420.225" y="648.778" width="85.6784" height="85.6784" stroke="white" stroke-width="1.08454"/>
<rect x="505.904" y="648.778" width="85.6784" height="85.6784" stroke="white" stroke-width="1.08454"/>
<rect x="591.582" y="648.778" width="85.6784" height="85.6784" stroke="white" stroke-width="1.08454"/>
<rect x="677.261" y="648.777" width="85.6784" height="85.6784" stroke="white" stroke-width="1.08454"/>
<rect x="762.939" y="648.777" width="85.6784" height="85.6784" stroke="white" stroke-width="1.08454"/>
<rect x="848.617" y="648.777" width="85.6784" height="85.6784" stroke="white" stroke-width="1.08454"/>
<rect x="934.296" y="648.778" width="85.6784" height="85.6784" stroke="white" stroke-width="1.08454"/>
<rect x="1019.97" y="648.778" width="85.6784" height="85.6784" stroke="white" stroke-width="1.08454"/>
<rect x="334.547" y="734.456" width="85.6784" height="85.6784" stroke="white" stroke-width="1.08454"/>
<rect x="420.225" y="734.456" width="85.6784" height="85.6784" stroke="white" stroke-width="1.08454"/>
<rect x="505.904" y="734.456" width="85.6784" height="85.6784" stroke="white" stroke-width="1.08454"/>
<rect x="591.582" y="734.456" width="85.6784" height="85.6784" fill="white" fill-opacity="0.25" stroke="white" stroke-width="1.08454"/>
<rect x="677.261" y="734.456" width="85.6784" height="85.6784" stroke="white" stroke-width="1.08454"/>
<rect x="762.939" y="734.456" width="85.6784" height="85.6784" stroke="white" stroke-width="1.08454"/>
<rect x="848.617" y="734.456" width="85.6784" height="85.6784" stroke="white" stroke-width="1.08454"/>
<rect x="934.296" y="734.456" width="85.6784" height="85.6784" stroke="white" stroke-width="1.08454"/>
<rect x="1019.97" y="734.456" width="85.6784" height="85.6784" stroke="white" stroke-width="1.08454"/>
</g>
</g>
</g>
<defs>
<filter id="filter0_f_8_43" x="192.124" y="-657.798" width="1057.04" height="1057.04" filterUnits="userSpaceOnUse" color-interpolation-filters="sRGB">
<feFlood flood-opacity="0" result="BackgroundImageFix"/>
<feBlend mode="normal" in="SourceGraphic" in2="BackgroundImageFix" result="shape"/>
<feGaussianBlur stdDeviation="200" result="effect1_foregroundBlur_8_43"/>
</filter>
<filter id="filter1_f_8_43" x="192.124" y="163.641" width="1057.04" height="1057.04" filterUnits="userSpaceOnUse" color-interpolation-filters="sRGB">
<feFlood flood-opacity="0" result="BackgroundImageFix"/>
<feBlend mode="normal" in="SourceGraphic" in2="BackgroundImageFix" result="shape"/>
<feGaussianBlur stdDeviation="200" result="effect1_foregroundBlur_8_43"/>
</filter>
<radialGradient id="paint0_radial_8_43" cx="0" cy="0" r="1" gradientUnits="userSpaceOnUse" gradientTransform="translate(721.184 -129.28) rotate(90) scale(383.047 641.755)">
<stop stop-color="#D9D9D9" stop-opacity="0.2"/>
<stop offset="0.8" stop-color="#D9D9D9" stop-opacity="0"/>
</radialGradient>
<radialGradient id="paint1_radial_8_43" cx="0" cy="0" r="1" gradientUnits="userSpaceOnUse" gradientTransform="translate(721.184 692.159) rotate(90) scale(383.047 641.755)">
<stop stop-color="#D9D9D9" stop-opacity="0.2"/>
<stop offset="0.802083" stop-color="#D9D9D9" stop-opacity="0"/>
</radialGradient>
<clipPath id="clip0_8_43">
<rect width="1440" height="791" fill="white" transform="translate(0.939453)"/>
</clipPath>
</defs>
</svg>
